<svg id="Layer_1" data-name="Layer 1" xmlns="http://www.w3.org/2000/svg" viewBox="0 0 122.72 122.61"><defs><style>.cls-1{fill:#dbc040;}.cls-2{fill:#5a307c;stroke:#000;stroke-linecap:round;stroke-linejoin:round;stroke-width:0.5px;}</style></defs><title>tsuba</title><circle class="cls-1" cx="61.05" cy="61.22" r="57.25"/><path id="Selection" class="cls-2" d="M50.88,1A59.41,59.41,0,0,0,41,3.53a58.77,58.77,0,0,0-22.8,14.71,60.42,60.42,0,0,0-11,14.4A59.16,59.16,0,0,0,.47,56.88c-.1,1.35-.09,7.62,0,8.88a58.82,58.82,0,0,0,6,22.8c6.6,13.2,19.29,24.91,33.13,30.14a64.21,64.21,0,0,0,16.08,3.69H57.6c1.26.11,9.84,0,9.84,0a62.6,62.6,0,0,0,19.92-5.34c15.55-7.14,28.49-22.09,33.15-38.57a57.27,57.27,0,0,0,1.88-9.36c.19-1.32.35-13.46.07-14.9l-.23-1.9a60.34,60.34,0,0,0-3.78-14.16,59.9,59.9,0,0,0-13.33-19.68C96.67,10,87.56,4.42,75.84,1.76A74.69,74.69,0,0,0,50.88,1Zm7.68,3.37c5.78-.54,15.35.75,20.88,2.57A52.6,52.6,0,0,1,97.92,17.14a58.39,58.39,0,0,1,16.46,21.74,56.74,56.74,0,0,1,4.18,18.72v7.2c0,6.76-2.4,15.53-5.34,21.6a60.14,60.14,0,0,1-21.78,23.9,53,53,0,0,1-24,7.8l-2.88.22H58.08a52.52,52.52,0,0,1-7.44-.86A53.91,53.91,0,0,1,36,112.74,59.92,59.92,0,0,1,9.43,85.44C6.92,80,4.63,71.57,4.56,65.52V57.84c0-5.69,2-13.72,4.18-19C14.53,25.3,26.87,13,40.8,7.93A56.87,56.87,0,0,1,51.6,5.1l3.84-.5Zm-7.92,13c-6.21.94-10.57,3.24-15.84,6.52-2.93,1.82-7,4.73-9.29,7.3a21,21,0,0,0-2.86,4.08L21.88,37c-.92,1.39-1.69.8-3.1,3.61-1.64,3.3-1.61,7.94-2,9.12a9.93,9.93,0,0,1-1.69,2.4,7.76,7.76,0,0,0-1.35,3.84c-.19,2.61,1.5,5.42,1.71,6.72.15.94-.47,2-.77,2.88a8.38,8.38,0,0,0-.5,3.36A6.51,6.51,0,0,0,15.68,73C17,74.52,18.2,74.87,18.24,77c.05,2.52,0,4.28,1.59,6.48.86,1.19,2,1.89,2.58,2.68l.89,1.4a14.79,14.79,0,0,0,3.58,3.86,32.86,32.86,0,0,0,4.27,2.43c1.06.74,1.19,2.52,3.41,4,2.38,1.59,4.18,1.27,5,1.71s3,3.06,6.24,3.83c2.31.59,3-.28,4.08,0s2.69,1.84,5,2.12,3.17-.8,4.08-.69,1.86,1.36,3.36,1.36,2.91-1.45,3.84-1.67,2.84.67,4.32.49c1.92-.24,2.49-1.24,3.36-1.59a12.91,12.91,0,0,1,2.64,0,9,9,0,0,0,5.75-2.22l1.8-2c.87-.67,2.84-.44,4.69-1.61,2.22-1.41,2.64-3.2,3.45-3.85.66-.52,2.42-.82,4.23-2.4,2.57-2.25,3.33-4.21,4.36-5.15l2.53-1.92A7.65,7.65,0,0,0,105.61,78V75.6c.11-1.08,1.17-1.65,1.87-2.41a9.17,9.17,0,0,0,2.12-4.07c.6-3.46-1.18-6.06-1.42-7.44a4.43,4.43,0,0,1,.67-2.4,10.22,10.22,0,0,0,.83-3.6,7.67,7.67,0,0,0-1.31-4.8,16.09,16.09,0,0,1-1.43-2.16l-.25-2.4a18.25,18.25,0,0,0-1.4-4.8,19.27,19.27,0,0,0-3.33-5l-1.49-1.68a26.52,26.52,0,0,0-2.35-3.6,39.24,39.24,0,0,0-9.56-7.49c-5.36-3.21-11-5.94-17.28-6.39a19,19,0,0,0-6.48,1.27l-2.64,1.28c-1,.21-3-1.21-4.08-1.62A16.09,16.09,0,0,0,50.64,17.38Zm33.12,22c.13-2.73,1.78-4.15.78-7.2-1.76-5.38-9.79-7.38-14.7-8.61a34.22,34.22,0,0,0-5.52-1c.52-4.46,7.2-2.93,10.08-2.3a41.82,41.82,0,0,1,18.48,9.51c2,1.8,4.66,3.76,4.79,6.71a5.63,5.63,0,0,1-.26,2.16c-.48,1.39-2.47,4-4,4-.71,0-2.6-1.14-3.36-1.51A15.88,15.88,0,0,0,83.76,39.36Zm-44.4,0a21.65,21.65,0,0,0-6.48,1.87c-.84.4-2.56,1.66-3.36,1.55a5.14,5.14,0,0,1-2.12-1.4c-3.26-3.08-2.3-6.83.69-9.66a43.32,43.32,0,0,1,17-10.36,33.47,33.47,0,0,1,8.16-1.68c1.59,0,3-.12,4.31.91.48.37,1.2,1.15.73,1.79-.29.4-1.22.48-1.68.57l-3.84.78c-3.75.89-8.32,2.28-11.52,4.44-2,1.38-3.57,3.33-3.42,5.91C38,36,39,37.54,39.36,39.36ZM72.48,40.8c.24-2.63,1.8-4.35.91-7.2a7,7,0,0,0-6.91-5,17.85,17.85,0,0,1-3.12.35c-1.07-.14-3.31-1.33-5.28-1-3.29.56-3.79,2.28-5.84,4.34L50.4,33.88a21.92,21.92,0,0,0-4.08,5c1.9-1.4,4.36-3.41,6.72-4,1.59-.37,4.06.21,6.24-.51,2-.67,2.55-2,3.4-2.5A5.79,5.79,0,0,1,65,31.68c2.35,0,4.67.57,4.79,3.36a3.29,3.29,0,0,1-.27,1.79c-1.06,1.43-5.26,1.09-6.92,1.09a20.42,20.42,0,0,0-6.24,1l-3.6,1.37A18.3,18.3,0,0,1,45.36,40c-3.28-1.13-6-5-4.12-8.32,1.16-2.1,5.47-4.05,7.72-4.82,7.08-2.41,16.89-2.61,24-.24,3.56,1.19,8.67,3.39,9,7.68C82.35,39.56,76.53,40.79,72.48,40.8ZM57.38,30.18a.8.8,0,0,1,.4,1.53C57.11,31.92,56.14,31,57.38,30.18Zm36.22,19a15.44,15.44,0,0,1,1.47-3.36,9.94,9.94,0,0,1,1.06-2.25l2.5-1.87c.5-.47,1.53-1.9,2-2.08,1-.43,1.84,1.89,2.13,2.6.78,1.93,1.4,4.94.69,7a3.47,3.47,0,0,1-1.89,2.23c-.8.23-1.9-.39-2.64-.68A32.58,32.58,0,0,0,93.6,49.2ZM22.34,40.26c1.12.05,1.59,1,2.38,1.72l2.75,2.29a19.43,19.43,0,0,1,1.15,2.53c.31.64,1.26,2.1,1,2.78s-1,.58-1.53.69A11.65,11.65,0,0,0,25,51.39a9.55,9.55,0,0,1-1.92,1c-1.34.21-2.46-1.88-2.76-3a10.82,10.82,0,0,1,.57-7C21.24,41.52,21.41,40.79,22.34,40.26Zm51.58,7.5c-.08-1-.93-3.81-.47-4.42.34-.45,3.3-.86,4.07-1.08l3.84-1.36a12.07,12.07,0,0,1,2.64.24c1.92.33,6.09,1.15,7.37,2.59a2.72,2.72,0,0,1-.23,3.54,8.71,8.71,0,0,1-5.22,2.61c-2.52.22-1.63-1.93-5-3C78.07,46.05,76.3,47.51,73.92,47.76ZM51.12,43.2a26.27,26.27,0,0,1-1.19,3.36c-.13.42-.26,1.17-.63,1.43s-1.29,0-1.78-.15a13,13,0,0,0-3.6-.79,7.87,7.87,0,0,0-5,1.54l-2.4,1.77c-.82.3-1.74-.46-2.36-.92-1.18-.9-2.84-2.18-2.62-3.84.16-1.19,1.12-1.74,2.1-2.21a28.06,28.06,0,0,1,5.76-1.68A9.26,9.26,0,0,1,42,41.42a40.71,40.71,0,0,0,3.84,1.5A22.07,22.07,0,0,0,51.12,43.2ZM61.44,45c3.62-.42,3,4.26,3.21,5.42a20.82,20.82,0,0,0,1.4,3.12A24.85,24.85,0,0,1,68,70.32c-.28,1.1-1.38,4.46-2.28,5a3.88,3.88,0,0,1-1.83.24H59.52a2.37,2.37,0,0,1-1.29-.24,5,5,0,0,1-1-1.68,22.84,22.84,0,0,1-1.57-5,24.23,24.23,0,0,1,1.43-13.2l2.06-4.56C59.67,49.16,58.92,46,61.44,45ZM82.32,55.2a5.46,5.46,0,0,1,2.64.46,4.59,4.59,0,0,1,1.92,6.19A6.47,6.47,0,0,1,82.8,64.8a3.56,3.56,0,0,1-3.36,5.71,5.47,5.47,0,0,1-3.34-1.72,9.35,9.35,0,0,1-.26-3l-.52-9.12c-.13-1.18-.89-4.84-.29-5.72,1.56-2.2,5.56-2.47,7,0C82.83,52.11,82.56,53.86,82.32,55.2ZM43.44,49.53a7.11,7.11,0,0,1,2.16,0C49,50.1,49,52.1,48.76,55l-.28,3.84c0,2.45.36,7.32-.68,9.36a4.53,4.53,0,0,1-4.6,2.38c-3-.19-4.79-2.18-5.4-5l-.17-2.16a30.42,30.42,0,0,1,0-7.2c.22-1.76.51-3.91,1.78-5.25S41.87,49.74,43.44,49.53ZM91,51.47a28.59,28.59,0,0,1,5.28.75c.76.18,1.73.37,2.15,1.11.58,1-.24,2-1,2.63-1.31,1.1-4.23,2.75-6,2.73a.88.88,0,0,1-.75-.28,20.1,20.1,0,0,0-1.74-3c-1.1-1.3-2-1.44-2.3-2s.17-1.17.71-1.45A12.22,12.22,0,0,1,91,51.47Zm13.92,0c1.73,0,1.9,1.61,1.92,3,0,2.69-.19,4.44-2.17,6.48a5.19,5.19,0,0,1-2.15,1.49c-1.86.58-5.23-.09-5.84-2.21-.32-1.11,1-1.9,1.76-2.51a55.9,55.9,0,0,0,4-4.21C103.33,52.53,103.57,52,104.88,51.48Zm-87.6.6c1.66.13,3.48,1.9,4.56,3.14A13.3,13.3,0,0,0,24.72,58c.58.43,1.76,1.1,2,1.76.65,1.79-2.4,4.63-4.17,4.46a4.58,4.58,0,0,1-1.92-.83A7.24,7.24,0,0,1,17,57.6C16.7,54.74,17.07,54.73,17.28,52.08Zm17.28,7.2c-3,0-8.61-.28-9.43-4.08-.22-1,.49-1.58,1.27-2a10,10,0,0,1,5.28-1.09c.71,0,2.67,0,3.13.62s.1,1.47,0,2A21.93,21.93,0,0,0,34.56,59.28ZM34.32,61l1,5.76.68,2.4a14.24,14.24,0,0,1-4.8.72c-2.69,0-6.71-2.8-4.46-5.75C28.28,62.08,31.88,61.07,34.32,61Zm56.7.39c1.94-.28,5,1.4,6.4,2.67,1,1,1.88,2.39.25,3.31-1.09.61-6.36,1.36-7.67,1.27-.92-.07-3.45-.37-3.45-1.63,0-1,1.57-1,2.94-3.13C90.07,63,90.18,62,91,61.35Zm15.3,2.49.22,2.64A8.4,8.4,0,0,1,104.83,72c-1.5,1.66-3.81,2.23-6,2.47a5.92,5.92,0,0,1-2.1,0c-.75-.28-2-2.4-2.22-3.18a18.92,18.92,0,0,0,4.08-2.68l2.71-2.74A11.54,11.54,0,0,1,106.32,63.84Zm-76.8,7.68a2.77,2.77,0,0,1-.24,1,13.54,13.54,0,0,1-2.45,3c-1.61.69-5.89-1-7.15-2.07C16.85,70.91,17,67.71,17,64.32c1.54.17,2,.74,3.36,1.34a16,16,0,0,1,2.32,1l2,2.19A9.61,9.61,0,0,0,29.52,71.52Zm44.88,3.6.72-3.6c2.17.22,2.63,1,5.52,1s4.37-1.78,5.52-2a7,7,0,0,1,2.88.58c1.29.5,4.89,2.74,4.18,4.45-.24.58-1.23.92-1.78,1.15-1.2.48-4.55,1.58-5.76,1.45l-4.32-1.69A19.7,19.7,0,0,0,74.4,75.12ZM48.72,71c.07.85.79,3.41.43,3.95s-3.48,1.22-4.27,1.5C41,77.83,37.75,79.07,33.6,77.75A7.87,7.87,0,0,1,30.4,76c-.54-.78.33-1.68.87-2.2A8.92,8.92,0,0,1,37,71.3c2.07-.11,2.4,1.12,4.8,1.38C45,73,46.11,71.19,48.72,71Zm54.24,5c0,5.08-3.06,9.54-8.64,8.56a8.35,8.35,0,0,1-2.88-1.31c-.74-.46-2.77-1.71-3.08-2.46-.5-1.22,1.66-1.13,3.32-1.78l3.12-1.68L98.64,77Zm-67.2,4.08c-.22,1.33-.8,1.7-1.72,2.64-2.45,2.53-5.31,3.4-8.6,2A7.24,7.24,0,0,1,22.93,83a7.31,7.31,0,0,1-1.53-4c0-.47-.1-1.35.34-1.65s2.79.3,3.46.38a17.48,17.48,0,0,1,2.88.24C29.91,78.52,31.32,80.15,35.76,80.16ZM87.36,84c-1.94.44-4.28.85-6.24.23-1.42-.46-2.37-1.49-3.6-2.28a16.46,16.46,0,0,0-5-2.27c.55-2.94,1.9-2.54,4.32-2.05a22.4,22.4,0,0,1,8.4,3.42C86.51,82,87.23,82.34,87.36,84Zm-37-6.48c.21.59,1,2,.68,2.52s-2.7,1.44-3.32,1.8a43.59,43.59,0,0,1-4.32,2.58,10.84,10.84,0,0,1-7,0c.45-1.47,1.83-2.22,3.12-3A29.2,29.2,0,0,1,50.4,77.52ZM80.16,89c-5.42,1-9.31-1.37-9.36-7.2,2.55.26,5.78,2.35,7.54,4.15C79.35,87,80,87.58,80.16,89ZM53.28,82.32A8.17,8.17,0,0,1,53,85c-1.29,4.76-5,4.8-9.08,4.8.21-1.53.86-2.06,1.92-3.12A15.62,15.62,0,0,1,53.28,82.32Zm2.4,2.16,2.39.13c1.21.09,1,1.33,1,2.27a12.1,12.1,0,0,1-1.31,4.8c-1.4,2.39-2.18,1.25-2.56-.72A8.56,8.56,0,0,1,55,89.28,16.65,16.65,0,0,1,55.68,84.48Zm12.48,0c.4,2,.94,3.69.61,5.76-.09.61-.25,1.76-.91,2-.94.34-1.66-.83-2-1.52-.86-1.87-.82-4-1.08-6Zm28.56,2.4c-1.56,5.76-12.54,5.81-13.92.24l3.84-.64,2.64-.71,3.12.71Zm-55.44.48C40.56,91.92,34.48,92.5,31,91c-1.56-.67-3-1.66-3.36-3.39l6-1.16,3.12.58ZM61.44,90c1.11.36,1.1.75,1.7,1.68a11,11,0,0,1,1.49,2.4c.33,1.93-3.17,2.1-4.39,1.79-.54-.13-1.3-.41-1.22-1.1a7.58,7.58,0,0,1,1.11-1.89A14.09,14.09,0,0,0,61.44,90Zm9.84,3.6c.46-2.06.77-1.26.48-3.6.83.07,3.61.73,3.93,1.54a1.33,1.33,0,0,1-.13,1.08C74.71,94.16,72.69,93.79,71.28,93.6Zm-19.2-3.12.72,3.6c-1,0-3.46.06-4.07-.87-.33-.5.13-.85.5-1.11A10,10,0,0,1,52.08,90.48Zm27.63,1.3c2.81-.45,4.07.85,6.69,1.42.65.14,2.34.21,1.88,1.32C87.67,96,85.29,96,84,96a9.55,9.55,0,0,1-4.76-1.29C78,93.88,78.53,92.34,79.71,91.78ZM35.28,94.32a20,20,0,0,0,4.32-1.5c1.8-.9,2.52-1.17,4.54-.49.8.27,1.66,1.27,1.2,2.15a4.64,4.64,0,0,1-1.9,1.33C41.32,96.79,36.2,97.05,35.28,94.32ZM73.2,96.48c0,2.5-.42,5.91-3.6,6a3.32,3.32,0,0,1-1.78-.28c-.45-.36-.37-1.12-.42-1.64l-.92-4.08,2.4-.69Zm2.16,4.32.16-1.44c0-.84-.56-2.35,0-3A1.16,1.16,0,0,1,76.8,96l1.92,1c1.09.57,3.61,1.35,1.43,2.74l-.71.36a9.65,9.65,0,0,1-1.68.53A10.17,10.17,0,0,1,75.36,100.8ZM43,98.88c2.8-.66,3.68-2.07,4.56-2.36,1.67-.56,1.47,2.3,1.08,3.31a1.24,1.24,0,0,1-.67.83c-.93.43-3.89-.27-4.59-1A1.54,1.54,0,0,1,43,98.88ZM51.6,96.5a17.93,17.93,0,0,0,4.08,0,2.41,2.41,0,0,1,1.35.22c1.14.74,1.68,4.13,1,5.18-.41.61-1.19.57-1.85.58-1.37,0-3.28,0-4.17-1.25-.42-.6-.21-1.2-.17-1.87Zm12.48,1.9c0,2,.16,4.63-2.4,5l-.48-4.8Z" transform="translate(-0.15 -0.07)"/></svg>